<svg xmlns="http://www.w3.org/2000/svg" width="28.75" height="18.75" viewBox="0 0 28.75 18.75">
  <g id="组_537" data-name="组 537" transform="translate(-48.495 -204.614)">
    <path id="路径_1872" data-name="路径 1872" d="M352.607,357.015a4.7,4.7,0,1,1,4.968-4.688A4.84,4.84,0,0,1,352.607,357.015Zm0-7.624a2.942,2.942,0,1,0,3.112,2.937A3.032,3.032,0,0,0,352.607,349.39Z" transform="translate(-289.736 -138.338)" fill="#999" stroke="#999" stroke-width="0.75"/>
    <path id="路径_1873" data-name="路径 1873" d="M62.87,222.989h-.02a13.57,13.57,0,0,1-5.639-1.427,20.129,20.129,0,0,1-4.34-2.907,24.556,24.556,0,0,1-3.843-4.156.907.907,0,0,1,0-1.021,24.557,24.557,0,0,1,3.843-4.156,20.128,20.128,0,0,1,4.34-2.907,13.57,13.57,0,0,1,5.639-1.427h.041a13.57,13.57,0,0,1,5.639,1.427,20.128,20.128,0,0,1,4.34,2.907,24.558,24.558,0,0,1,3.843,4.156.881.881,0,0,1,.157.5V214a.881.881,0,0,1-.157.5,24.558,24.558,0,0,1-3.843,4.156,20.13,20.13,0,0,1-4.34,2.907,13.57,13.57,0,0,1-5.639,1.427Zm-11.932-9a24.2,24.2,0,0,0,3.2,3.351c1.989,1.71,5.117,3.765,8.732,3.849,5.953-.138,10.622-5.524,11.932-7.2a24.2,24.2,0,0,0-3.2-3.351c-1.989-1.71-5.117-3.765-8.732-3.849C56.917,206.927,52.248,212.313,50.938,213.989Z" fill="#999" stroke="#999" stroke-width="0.75"/>
  </g>
</svg>
